# xmcd
#
# Track frame offsets: 
#        182
#        13070
#        23172
#        35527
#        45672
#        53982
#        63880
#        75847
#        85140
#        96362
#        107680
#        120180
#        127812
#        138527
#        148995
#        158992
#        170897
#        181770
#
# Disc length: 2588 seconds
#
# Revision: 7
# Processed by: cddbd v1.5.2PL0 Copyright (c) Steve Scherf et al.
# Submitted via: ExactAudioCopy v0.99pb4
#
DISCID=e90a1a12
DTITLE=Johnny Cash - The Sun Years
DYEAR=1990
DGENRE=Country
TTITLE0=Folsom Prison Blues
TTITLE1=Hey Porter
TTITLE2=I Walk The Line
TTITLE3=Get Rhythm
TTITLE4=Guess Things Happen That Way
TTITLE5=Rock Island Line
TTITLE6=Home Of The Blues
TTITLE7=Luther Played The Boogie
TTITLE8=Mean Eyed Cat
TTITLE9=Big River
TTITLE10=Next In Line
TTITLE11=Come In Stranger
TTITLE12=Train Of Love
TTITLE13=There You Go
TTITLE14=Ballad Of A Teenage Queen
TTITLE15=So Doggone Lonesome
TTITLE16=The Ways Of A Woman In Love
TTITLE17=Give My Love To Rose
EXTD=
EXTT0=
EXTT1=
EXTT2=
EXTT3=
EXTT4=
EXTT5=
EXTT6=
EXTT7=
EXTT8=
EXTT9=
EXTT10=
EXTT11=
EXTT12=
EXTT13=
EXTT14=
EXTT15=
EXTT16=
EXTT17=
PLAYORDER=
